<?xml version="1.0" standalone="no"?><svg xmlns="http://www.w3.org/2000/svg" viewBox="0 0 1440 320"><path fill="#00cba9" fill-opacity="1" d="M0,320L40,288C80,256,160,192,240,186.7C320,181,400,235,480,229.3C560,224,640,160,720,117.3C800,75,880,53,960,37.3C1040,21,1120,11,1200,37.3C1280,64,1360,128,1400,160L1440,192L1440,320L1400,320C1360,320,1280,320,1200,320C1120,320,1040,320,960,320C880,320,800,320,720,320C640,320,560,320,480,320C400,320,320,320,240,320C160,320,80,320,40,320L0,320Z"></path></svg>